# xmcd CD database file
#
# Track frame offsets:
#	150
#	14293
#	27533
#	41567
#	55097
#	71589
#	81995
#	94601
#	108414
#	122924
#	140872
#	154482
#	168564
#	184213
#	198452
#	211489
#
# Disc length: 3003 seconds
#
# Revision: 0
# Processed by: cddbd v1.5.1PL0 Copyright (c) Steve Scherf et al.
# Submitted via: CDex 1.51
#
DISCID=ef0bb910
DTITLE=John Lee Hooker - Ultimate Jazz and Blues disc 28
DYEAR=2004
DGENRE=Blues
TTITLE0=Boogie Chillen
TTITLE1=I need lovin'
TTITLE2=Sally Mae
TTITLE3=Crawling king snake
TTITLE4=Helpless blues
TTITLE5=Walking this higway
TTITLE6=Weeping willow 
TTITLE7=Alberta
TTITLE8=Four woman in my life
TTITLE9=Wednesday evening blues
TTITLE10=Hobo blues
TTITLE11=Stomp boogie
TTITLE12=Landing blues
TTITLE13=Henry's swing club
TTITLE14=Do my baby think of me
TTITLE15=Three long years today
EXTD=YEAR: 2004
EXTT0=
EXTT1=
EXTT2=
EXTT3=
EXTT4=
EXTT5=
EXTT6=
EXTT7=
EXTT8=
EXTT9=
EXTT10=
EXTT11=
EXTT12=
EXTT13=
EXTT14=
EXTT15=
PLAYORDER=
